# xmcd CD database file
#
# Track frame offsets:
#	150
#	49828
#	100546
#	142453
#	196701
#	225297
#
# Disc length: 3238 seconds
#
# Revision: 0
# Processed by: cddbd v1.5.2PL0 Copyright (c) Steve Scherf et al.
# Submitted via: CDex 2.01
#
DISCID=470ca406
DTITLE=Horace Silver - Doin' The Thing - At The Village Gate
DYEAR=1961
DGENRE=Jazz
TTITLE0=Filthy McNasty
TTITLE1=Doin' the Thing
TTITLE2=Kiss Me Right
TTITLE3=The Gringo/Cool Eyes (Theme)
TTITLE4=It Ain't S'posed to Be Like That
TTITLE5=Cool Eyes (Full Version)
EXTD=YEAR: 1961
EXTT0=
EXTT1=
EXTT2=
EXTT3=
EXTT4=
EXTT5=
PLAYORDER=
